<svg xmlns="http://www.w3.org/2000/svg" viewBox="0 0 256 192" fill="none" role="img" aria-labelledby="malek-mark-title">
  <title id="malek-mark-title">MALEK</title>
  <path fill="#071B3C" d="M28 160V54c0-8 9-13 16-9l84 53-24 31-44-28v59H28Z"/>
  <path fill="#1688BC" d="M228 160V54c0-8-9-13-16-9l-84 53 24 31 44-28v59h32Z"/>
  <path fill="#18B9E6" d="m128 98 84-53c7-4 16 1 16 9v18l-76 57-24-31Z"/>
  <path fill="#102A54" d="M28 54c0-8 9-13 16-9l84 53-24 31-76-57V54Z" opacity=".72"/>
  <path fill="#FFFFFF" d="m104 129 24-31 24 31v31h-48v-31Z"/>
</svg>
